<svg xmlns="http://www.w3.org/2000/svg" width="1254" height="1254" viewBox="0 0 1254 1254" role="img" aria-label="AEGRIX logo vectorized dark theme">
  <title>AEGRIX Logo - dark theme</title>
  <g id="AEGRIX-vectorized-logo" fill-rule="evenodd">
    <!-- Cambiado de #1C2333 a #FFFFFF para visibilidad en fondo oscuro -->
    <path id="icon-and-wordmark-white" d="M 248.0 885.0 L 265.0 914.0 L 286.0 914.0 L 263.0 874.0 Z M 995.0 809.0 L 1041.0 859.0 L 1041.0 861.0 L 995.0 911.0 L 994.0 914.0 L 1018.0 914.0 L 1054.0 874.0 L 1061.0 880.0 L 1091.0 914.0 L 1115.0 914.0 L 1114.0 911.0 L 1068.0 860.0 L 1114.0 809.0 L 1089.0 809.0 L 1055.0 846.0 L 1021.0 809.0 Z M 905.0 809.0 L 905.0 914.0 L 925.0 914.0 L 925.0 809.0 Z M 720.0 809.0 L 720.0 914.0 L 740.0 913.0 L 741.0 826.0 L 804.0 827.0 L 810.0 834.0 L 810.0 850.0 L 808.0 855.0 L 803.0 859.0 L 765.0 859.0 L 764.0 873.0 L 805.0 914.0 L 832.0 914.0 L 795.0 877.0 L 796.0 875.0 L 811.0 874.0 L 820.0 870.0 L 825.0 865.0 L 828.0 859.0 L 829.0 828.0 L 825.0 819.0 L 820.0 814.0 L 806.0 809.0 Z M 528.0 819.0 L 523.0 831.0 L 523.0 894.0 L 525.0 901.0 L 529.0 907.0 L 539.0 913.0 L 549.0 915.0 L 613.0 915.0 L 629.0 913.0 L 638.0 905.0 L 640.0 900.0 L 640.0 855.0 L 584.0 855.0 L 584.0 872.0 L 621.0 873.0 L 620.0 897.0 L 548.0 896.0 L 543.0 889.0 L 543.0 834.0 L 545.0 830.0 L 551.0 826.0 L 640.0 826.0 L 640.0 809.0 L 548.0 809.0 L 540.0 811.0 L 532.0 815.0 Z M 346.0 810.0 L 346.0 914.0 L 452.0 914.0 L 452.0 897.0 L 368.0 897.0 L 366.0 892.0 L 366.0 874.0 L 368.0 870.0 L 439.0 870.0 L 439.0 853.0 L 368.0 853.0 L 368.0 826.0 L 450.0 826.0 L 450.0 809.0 Z M 223.0 809.0 L 207.0 809.0 L 145.0 914.0 L 167.0 913.0 L 215.0 831.0 L 219.0 835.0 L 239.0 869.0 L 254.0 861.0 Z M 775.0 526.0 L 740.0 564.0 L 736.0 570.0 L 736.0 576.0 L 832.0 743.0 L 904.0 744.0 L 777.0 527.0 Z M 628.0 275.0 L 350.0 743.0 L 351.0 744.0 L 421.0 744.0 L 627.0 398.0 L 629.0 399.0 L 696.0 512.0 L 698.0 512.0 L 746.0 477.0 Z" fill="#FFFFFF"/>
    <path id="cyan-slash-accents" d="M 278.0 853.0 L 247.0 871.0 L 197.0 897.0 L 181.0 924.0 L 179.0 930.0 L 240.0 886.0 L 276.0 856.0 Z M 863.0 408.0 L 817.0 443.0 L 585.0 629.0 L 545.0 660.0 L 499.0 763.0 L 513.0 752.0 L 579.0 692.0 L 688.0 588.0 L 801.0 475.0 Z" fill="#00C2FF"/>
  </g>
</svg>
